<?xml version="1.0" encoding="UTF-8" standalone="no"?><svg xmlns="http://www.w3.org/2000/svg" xmlns:xlink="http://www.w3.org/1999/xlink" contentScriptType="application/ecmascript" contentStyleType="text/css" height="171px" preserveAspectRatio="none" style="width:1006px;height:171px;background:#FFFFFF;" version="1.1" viewBox="0 0 1006 171" width="1006px" zoomAndPan="magnify"><defs><filter height="300%" id="f16gzzdt88qh9j" width="300%" x="-1" y="-1"><feGaussianBlur result="blurOut" stdDeviation="2.0"/><feColorMatrix in="blurOut" result="blurOut2" type="matrix" values="0 0 0 0 0 0 0 0 0 0 0 0 0 0 0 0 0 0 .4 0"/><feOffset dx="4.0" dy="4.0" in="blurOut2" result="blurOut3"/><feBlend in="SourceGraphic" in2="blurOut3" mode="normal"/></filter></defs><g><!--MD5=[4dbf32cf44536c23cb6affaf0415ecd4]
entity web application--><rect fill="#FEFECE" filter="url(#f16gzzdt88qh9j)" height="46.2969" style="stroke:#A80036;stroke-width:1.5;" width="155" x="411" y="7"/><rect fill="#FEFECE" height="10" style="stroke:#A80036;stroke-width:1.5;" width="15" x="546" y="12"/><rect fill="#FEFECE" height="2" style="stroke:#A80036;stroke-width:1.5;" width="4" x="544" y="14"/><rect fill="#FEFECE" height="2" style="stroke:#A80036;stroke-width:1.5;" width="4" x="544" y="18"/><text fill="#000000" font-family="sans-serif" font-size="14" lengthAdjust="spacing" textLength="115" x="426" y="39.9951">web application</text><!--MD5=[4658739b754216c75163c3a33925991c]
entity songsearch--><rect fill="#FEFECE" filter="url(#f16gzzdt88qh9j)" height="46.2969" style="stroke:#A80036;stroke-width:1.5;" width="121" x="7" y="113"/><rect fill="#FEFECE" height="10" style="stroke:#A80036;stroke-width:1.5;" width="15" x="108" y="118"/><rect fill="#FEFECE" height="2" style="stroke:#A80036;stroke-width:1.5;" width="4" x="106" y="120"/><rect fill="#FEFECE" height="2" style="stroke:#A80036;stroke-width:1.5;" width="4" x="106" y="124"/><text fill="#000000" font-family="sans-serif" font-size="14" lengthAdjust="spacing" textLength="81" x="22" y="145.9951">songsearch</text><!--MD5=[1647ca36dc1b2ee6ddbcfc90569c0f73]
entity api-wrapper--><rect fill="#FEFECE" filter="url(#f16gzzdt88qh9j)" height="46.2969" style="stroke:#A80036;stroke-width:1.5;" width="128" x="163.5" y="113"/><rect fill="#FEFECE" height="10" style="stroke:#A80036;stroke-width:1.5;" width="15" x="271.5" y="118"/><rect fill="#FEFECE" height="2" style="stroke:#A80036;stroke-width:1.5;" width="4" x="269.5" y="120"/><rect fill="#FEFECE" height="2" style="stroke:#A80036;stroke-width:1.5;" width="4" x="269.5" y="124"/><text fill="#000000" font-family="sans-serif" font-size="14" lengthAdjust="spacing" textLength="88" x="178.5" y="145.9951">api-wrapper</text><!--MD5=[b43fd3e8bde7a46f1d275b41c2bae67a]
entity nlp--><rect fill="#FEFECE" filter="url(#f16gzzdt88qh9j)" height="46.2969" style="stroke:#A80036;stroke-width:1.5;" width="63" x="327" y="113"/><rect fill="#FEFECE" height="10" style="stroke:#A80036;stroke-width:1.5;" width="15" x="370" y="118"/><rect fill="#FEFECE" height="2" style="stroke:#A80036;stroke-width:1.5;" width="4" x="368" y="120"/><rect fill="#FEFECE" height="2" style="stroke:#A80036;stroke-width:1.5;" width="4" x="368" y="124"/><text fill="#000000" font-family="sans-serif" font-size="14" lengthAdjust="spacing" textLength="23" x="342" y="145.9951">nlp</text><!--MD5=[5edeeb5fc5ab67d1884940c0116120f8]
entity visualisation--><rect fill="#FEFECE" filter="url(#f16gzzdt88qh9j)" height="46.2969" style="stroke:#A80036;stroke-width:1.5;" width="127" x="425" y="113"/><rect fill="#FEFECE" height="10" style="stroke:#A80036;stroke-width:1.5;" width="15" x="532" y="118"/><rect fill="#FEFECE" height="2" style="stroke:#A80036;stroke-width:1.5;" width="4" x="530" y="120"/><rect fill="#FEFECE" height="2" style="stroke:#A80036;stroke-width:1.5;" width="4" x="530" y="124"/><text fill="#000000" font-family="sans-serif" font-size="14" lengthAdjust="spacing" textLength="87" x="440" y="145.9951">visualisation</text><!--MD5=[9904080ab2369f512b73354831cefaff]
entity sheetmusic-search--><rect fill="#FEFECE" filter="url(#f16gzzdt88qh9j)" height="46.2969" style="stroke:#A80036;stroke-width:1.5;" width="175" x="587" y="113"/><rect fill="#FEFECE" height="10" style="stroke:#A80036;stroke-width:1.5;" width="15" x="742" y="118"/><rect fill="#FEFECE" height="2" style="stroke:#A80036;stroke-width:1.5;" width="4" x="740" y="120"/><rect fill="#FEFECE" height="2" style="stroke:#A80036;stroke-width:1.5;" width="4" x="740" y="124"/><text fill="#000000" font-family="sans-serif" font-size="14" lengthAdjust="spacing" textLength="135" x="602" y="145.9951">sheetmusic-search</text><!--MD5=[53eb532695529545ccda26fe1b89d68e]
entity sheetmusic processor--><rect fill="#FEFECE" filter="url(#f16gzzdt88qh9j)" height="46.2969" style="stroke:#A80036;stroke-width:1.5;" width="197" x="797" y="113"/><rect fill="#FEFECE" height="10" style="stroke:#A80036;stroke-width:1.5;" width="15" x="974" y="118"/><rect fill="#FEFECE" height="2" style="stroke:#A80036;stroke-width:1.5;" width="4" x="972" y="120"/><rect fill="#FEFECE" height="2" style="stroke:#A80036;stroke-width:1.5;" width="4" x="972" y="124"/><text fill="#000000" font-family="sans-serif" font-size="14" lengthAdjust="spacing" textLength="157" x="812" y="145.9951">sheetmusic processor</text><!--MD5=[e431bb6b2ae543b15a81058fe4c50936]
link web application to songsearch--><path d="M410.971,48.596 C341.307,64.6307 236.301,89.3513 145.5,113 C141.488,114.045 137.365,115.141 133.212,116.2623 " fill="none" id="web application-to-songsearch" style="stroke:#A80036;stroke-width:1.0;"/><polygon fill="#A80036" points="128.326,117.5887,138.0596,119.0909,133.1513,116.2787,135.9636,111.3704,128.326,117.5887" style="stroke:#A80036;stroke-width:1.0;"/><!--MD5=[129e827ec061ad5efead71944fdb8c64]
link songsearch to api-wrapper--><path d="M128.125,136 C138.152,136 148.179,136 158.206,136 " fill="none" id="songsearch-to-api-wrapper" style="stroke:#A80036;stroke-width:1.0;"/><polygon fill="#A80036" points="163.45,136,154.45,132,158.45,136,154.45,140,163.45,136" style="stroke:#A80036;stroke-width:1.0;"/><!--MD5=[79e6e2c6d7aef376ba0faab50a439082]
link web application to nlp--><path d="M460.93,53.056 C440.162,69.6707 411.659,92.4729 389.993,109.806 " fill="none" id="web application-to-nlp" style="stroke:#A80036;stroke-width:1.0;"/><polygon fill="#A80036" points="386.03,112.9761,395.5563,110.4762,389.934,109.8522,390.558,104.2298,386.03,112.9761" style="stroke:#A80036;stroke-width:1.0;"/><!--MD5=[49c1ba68cbbc9d0afb4a7d781c6611cb]
link web application to visualisation--><path d="M488.5,53.056 C488.5,69.0503 488.5,90.7785 488.5,107.8418 " fill="none" id="web application-to-visualisation" style="stroke:#A80036;stroke-width:1.0;"/><polygon fill="#A80036" points="488.5,112.9761,492.5,103.9761,488.5,107.9761,484.5,103.9761,488.5,112.9761" style="stroke:#A80036;stroke-width:1.0;"/><!--MD5=[b8ae471e29bd57237ddb8736e3703437]
link web application to sheetmusic-search--><path d="M527.946,53.056 C558.031,69.8776 599.459,93.0415 630.595,110.4507 " fill="none" id="web application-to-sheetmusic-search" style="stroke:#A80036;stroke-width:1.0;"/><polygon fill="#A80036" points="635.111,112.9761,629.2075,105.0927,630.7468,110.5361,625.3034,112.0754,635.111,112.9761" style="stroke:#A80036;stroke-width:1.0;"/><!--MD5=[c771022d20ad89a397a58169c4c06995]
link web application to sheetmusic processor--><path d="M566.012,50.806 C633.807,68.13 732.359,93.3128 804.006,111.6208 " fill="none" id="web application-to-sheetmusic processor" style="stroke:#A80036;stroke-width:1.0;"/><polygon fill="#A80036" points="809.118,112.9269,801.3893,106.8222,804.2738,111.6884,799.4077,114.5729,809.118,112.9269" style="stroke:#A80036;stroke-width:1.0;"/><!--MD5=[78406c11dc42c43a577bc4ec70fcc8d1]
@startuml
[web application] -down-> [songsearch]
[songsearch] -> [api-wrapper]
[web application] -down-> [nlp]
[web application] -down-> [visualisation]
[web application] -down-> [sheetmusic-search]
[web application] -down-> [sheetmusic processor]
@enduml

PlantUML version 1.2022.2beta1(Unknown compile time)
(GPL source distribution)
Java Runtime: Java(TM) SE Runtime Environment
JVM: Java HotSpot(TM) 64-Bit Server VM
Default Encoding: UTF-8
Language: en
Country: US
--></g></svg>