<?xml version="1.0" encoding="UTF-8" standalone="no"?><svg xmlns="http://www.w3.org/2000/svg" xmlns:xlink="http://www.w3.org/1999/xlink" contentScriptType="application/ecmascript" contentStyleType="text/css" height="432px" preserveAspectRatio="none" style="width:874px;height:432px;background:#FFFFFF;" version="1.1" viewBox="0 0 874 432" width="874px" zoomAndPan="magnify"><defs><filter height="300%" id="f1kxfg6s2wubv" width="300%" x="-1" y="-1"><feGaussianBlur result="blurOut" stdDeviation="2.0"/><feColorMatrix in="blurOut" result="blurOut2" type="matrix" values="0 0 0 0 0 0 0 0 0 0 0 0 0 0 0 0 0 0 .4 0"/><feOffset dx="4.0" dy="4.0" in="blurOut2" result="blurOut3"/><feBlend in="SourceGraphic" in2="blurOut3" mode="normal"/></filter></defs><g><!--MD5=[9581351d4a2028020f5e3315621c6150]
cluster Web Application--><polygon fill="#FFFFFF" filter="url(#f1kxfg6s2wubv)" points="16,6,154,6,161,28.2969,283,28.2969,283,115,16,115,16,6" style="stroke:#000000;stroke-width:1.5;"/><line style="stroke:#000000;stroke-width:1.5;" x1="16" x2="161" y1="28.2969" y2="28.2969"/><text fill="#000000" font-family="sans-serif" font-size="14" font-weight="bold" lengthAdjust="spacing" textLength="132" x="20" y="20.9951">Web Application</text><!--MD5=[cb16d009c2c3c451e9c65eba30a46b49]
cluster nlp--><polygon fill="#FFFFFF" filter="url(#f1kxfg6s2wubv)" points="201,147,232,147,239,169.2969,527,169.2969,527,260,201,260,201,147" style="stroke:#000000;stroke-width:1.5;"/><line style="stroke:#000000;stroke-width:1.5;" x1="201" x2="239" y1="169.2969" y2="169.2969"/><text fill="#000000" font-family="sans-serif" font-size="14" font-weight="bold" lengthAdjust="spacing" textLength="25" x="205" y="161.9951">nlp</text><!--MD5=[4a76dd849831da209f2e5737e53dd76b]
cluster visualisation--><polygon fill="#FFFFFF" filter="url(#f1kxfg6s2wubv)" points="567,147,678,147,685,169.2969,857,169.2969,857,260,567,260,567,147" style="stroke:#000000;stroke-width:1.5;"/><line style="stroke:#000000;stroke-width:1.5;" x1="567" x2="685" y1="169.2969" y2="169.2969"/><text fill="#000000" font-family="sans-serif" font-size="14" font-weight="bold" lengthAdjust="spacing" textLength="105" x="571" y="161.9951">visualisation</text><!--MD5=[a92b32b44413fe6243a32ee5cfaccb8d]
cluster songsearch--><polygon fill="#FFFFFF" filter="url(#f1kxfg6s2wubv)" points="20,147,119,147,126,169.2969,161,169.2969,161,260,20,260,20,147" style="stroke:#000000;stroke-width:1.5;"/><line style="stroke:#000000;stroke-width:1.5;" x1="20" x2="126" y1="169.2969" y2="169.2969"/><text fill="#000000" font-family="sans-serif" font-size="14" font-weight="bold" lengthAdjust="spacing" textLength="93" x="24" y="161.9951">songsearch</text><!--MD5=[388aa15a9c78dfe367b366fa65b6ac0f]
cluster apiwrapper--><polygon fill="#FFFFFF" filter="url(#f1kxfg6s2wubv)" points="53,300,150,300,157,322.2969,220,322.2969,220,425,53,425,53,300" style="stroke:#000000;stroke-width:1.5;"/><line style="stroke:#000000;stroke-width:1.5;" x1="53" x2="157" y1="322.2969" y2="322.2969"/><text fill="#000000" font-family="sans-serif" font-size="14" font-weight="bold" lengthAdjust="spacing" textLength="91" x="57" y="314.9951">apiwrapper</text><!--MD5=[6969652fa195a96c6f3e1cfcf1f873be]
entity get_lyrics--><ellipse cx="74" cy="70" fill="#FEFECE" filter="url(#f1kxfg6s2wubv)" rx="8" ry="8" style="stroke:#A80036;stroke-width:1.5;"/><text fill="#000000" font-family="sans-serif" font-size="14" lengthAdjust="spacing" textLength="69" x="39.5" y="99.9951">get_lyrics</text><!--MD5=[366af272e2ac85f5283731148d7f5757]
entity update_graph--><ellipse cx="209" cy="70" fill="#FEFECE" filter="url(#f1kxfg6s2wubv)" rx="8" ry="8" style="stroke:#A80036;stroke-width:1.5;"/><text fill="#000000" font-family="sans-serif" font-size="14" lengthAdjust="spacing" textLength="100" x="159" y="99.9951">update_graph</text><!--MD5=[d6218856fbd9656d50b78ad45208d885]
entity cleanlyrics--><rect fill="#FEFECE" filter="url(#f1kxfg6s2wubv)" height="46.2969" style="stroke:#A80036;stroke-width:1.5;" width="115" x="387.5" y="190"/><rect fill="#FEFECE" height="10" style="stroke:#A80036;stroke-width:1.5;" width="15" x="482.5" y="195"/><rect fill="#FEFECE" height="2" style="stroke:#A80036;stroke-width:1.5;" width="4" x="480.5" y="197"/><rect fill="#FEFECE" height="2" style="stroke:#A80036;stroke-width:1.5;" width="4" x="480.5" y="201"/><text fill="#000000" font-family="sans-serif" font-size="14" lengthAdjust="spacing" textLength="75" x="402.5" y="222.9951">cleanlyrics</text><!--MD5=[c1d596b56c3ad9877d13ae3a4ab7e676]
entity distances--><rect fill="#FEFECE" filter="url(#f1kxfg6s2wubv)" height="46.2969" style="stroke:#A80036;stroke-width:1.5;" width="108" x="244" y="190"/><rect fill="#FEFECE" height="10" style="stroke:#A80036;stroke-width:1.5;" width="15" x="332" y="195"/><rect fill="#FEFECE" height="2" style="stroke:#A80036;stroke-width:1.5;" width="4" x="330" y="197"/><rect fill="#FEFECE" height="2" style="stroke:#A80036;stroke-width:1.5;" width="4" x="330" y="201"/><text fill="#000000" font-family="sans-serif" font-size="14" lengthAdjust="spacing" textLength="68" x="259" y="222.9951">distances</text><!--MD5=[a93e9313a232f8c5f08c8e90a3f33bd9]
entity heatmap--><rect fill="#FEFECE" filter="url(#f1kxfg6s2wubv)" height="46.2969" style="stroke:#A80036;stroke-width:1.5;" width="105" x="727.5" y="190"/><rect fill="#FEFECE" height="10" style="stroke:#A80036;stroke-width:1.5;" width="15" x="812.5" y="195"/><rect fill="#FEFECE" height="2" style="stroke:#A80036;stroke-width:1.5;" width="4" x="810.5" y="197"/><rect fill="#FEFECE" height="2" style="stroke:#A80036;stroke-width:1.5;" width="4" x="810.5" y="201"/><text fill="#000000" font-family="sans-serif" font-size="14" lengthAdjust="spacing" textLength="65" x="742.5" y="222.9951">heatmap</text><!--MD5=[b3d02ea9afa616ef3cb2582de7f2d155]
entity graph--><rect fill="#FEFECE" filter="url(#f1kxfg6s2wubv)" height="46.2969" style="stroke:#A80036;stroke-width:1.5;" width="82" x="610" y="190"/><rect fill="#FEFECE" height="10" style="stroke:#A80036;stroke-width:1.5;" width="15" x="672" y="195"/><rect fill="#FEFECE" height="2" style="stroke:#A80036;stroke-width:1.5;" width="4" x="670" y="197"/><rect fill="#FEFECE" height="2" style="stroke:#A80036;stroke-width:1.5;" width="4" x="670" y="201"/><text fill="#000000" font-family="sans-serif" font-size="14" lengthAdjust="spacing" textLength="42" x="625" y="222.9951">graph</text><!--MD5=[e86953fb7c0d67ef3c9aec16f94e2078]
entity song--><rect fill="#FEFECE" filter="url(#f1kxfg6s2wubv)" height="46.2969" style="stroke:#A80036;stroke-width:1.5;" width="74" x="63" y="190"/><rect fill="#FEFECE" height="10" style="stroke:#A80036;stroke-width:1.5;" width="15" x="117" y="195"/><rect fill="#FEFECE" height="2" style="stroke:#A80036;stroke-width:1.5;" width="4" x="115" y="197"/><rect fill="#FEFECE" height="2" style="stroke:#A80036;stroke-width:1.5;" width="4" x="115" y="201"/><text fill="#000000" font-family="sans-serif" font-size="14" lengthAdjust="spacing" textLength="34" x="78" y="222.9951">song</text><!--MD5=[8673b37d78985ea1e0e35f5cee12a5b6]
entity searchlyrics--><ellipse cx="146" cy="372" fill="#FEFECE" filter="url(#f1kxfg6s2wubv)" rx="8" ry="8" style="stroke:#A80036;stroke-width:1.5;"/><text fill="#000000" font-family="sans-serif" font-size="14" lengthAdjust="spacing" textLength="84" x="104" y="401.9951">searchlyrics</text><!--MD5=[7925a46c431cc88b6223bdbaf772def5]
link get_lyrics to songsearch--><path d="M69.6276,79.338 C63.7932,90.74 53.4504,111.959 47,131 C45.5633,135.241 44.196,139.6426 42.9023,144.1038 C42.7405,144.6615 42.58,145.2201 42.4206,145.7794 C42.3409,146.059 42.2614,146.3389 42.1823,146.6189 " fill="none" id="get_lyrics-to-songsearch" style="stroke:#A80036;stroke-width:1.0;"/><polygon fill="#A80036" points="42.1823,146.6189,48.479,139.0458,43.542,141.8073,40.7805,136.8703,42.1823,146.6189" style="stroke:#A80036;stroke-width:1.0;"/><!--MD5=[d6e0e1092800ec195192bd18b82f128d]
link update_graph to nlp--><path d="M209,79.398 C209,86.868 209,98.692 209,112.2746 C209,119.0659 209,126.2969 209,133.6431 C209,137.3162 209,141.0181 209,144.7083 C209,145.1696 209,145.6306 209,146.0915 C209,146.3219 209,146.5522 209,146.7825 " fill="none" id="update_graph-to-nlp" style="stroke:#A80036;stroke-width:1.0;"/><polygon fill="#A80036" points="209,146.7825,213,137.7825,209,141.7825,205,137.7825,209,146.7825" style="stroke:#A80036;stroke-width:1.0;"/><!--MD5=[0d19b39240d4cedf19cc1588bb180c4d]
link update_graph to visualisation--><path d="M218.028,71.826 C263.454,76.116 466.907,96.979 519,131 C536.749,142.5915 550.4423,161.958 559.8445,178.8479 C562.1951,183.0703 564.2774,187.138 566.0879,190.8907 C566.3143,191.3598 566.5363,191.824 566.7541,192.2829 C566.8086,192.3977 566.8628,192.5121 566.9167,192.6261 " fill="none" id="update_graph-to-visualisation" style="stroke:#A80036;stroke-width:1.0;"/><polygon fill="#A80036" points="566.9167,192.6261,566.6869,182.78,564.78,188.1057,559.4542,186.1987,566.9167,192.6261" style="stroke:#A80036;stroke-width:1.0;"/><!--MD5=[4e3408519346633555396819ff6cfadc]
link song to apiwrapper--><path d="M93.243,236.286 C89.185,249.99 84.0427,267.944 80,284 C78.8298,288.6476 77.6644,293.4454 76.5198,298.2888 C76.4483,298.5915 76.3768,298.8944 76.3055,299.1974 C76.2698,299.349 76.2341,299.5005 76.1985,299.6521 " fill="none" id="song-to-apiwrapper" style="stroke:#A80036;stroke-width:1.0;"/><polygon fill="#A80036" points="76.1985,299.6521,82.1522,291.8065,77.3428,294.7848,74.3645,289.9755,76.1985,299.6521" style="stroke:#A80036;stroke-width:1.0;"/><!--MD5=[eea2a432f9f6ba77e2016250f8a87715]
link song to searchlyrics--><path d="M106.493,236.161 C116.245,269.443 134.363,331.282 142.212,358.0708 " fill="none" id="song-to-searchlyrics" style="stroke:#A80036;stroke-width:1.0;"/><polygon fill="#A80036" points="143.639,362.9424,144.9472,353.1808,142.2332,358.1441,137.2699,355.4301,143.639,362.9424" style="stroke:#A80036;stroke-width:1.0;"/><!--MD5=[037cc6faa1698044bad760e5a51bd22b]
@startuml
package "Web Application" {
get_lyrics -down-> songsearch
update_graph -down-> nlp
update_graph -down-> visualisation
}
package "nlp" {
[cleanlyrics]
[distances]
}
package "visualisation" {
[heatmap]
[graph]
}
package "songsearch"{
[song] -down-> apiwrapper
}
package "apiwrapper" {
song -down-> searchlyrics
}
@enduml

PlantUML version 1.2022.2beta1(Unknown compile time)
(GPL source distribution)
Java Runtime: Java(TM) SE Runtime Environment
JVM: Java HotSpot(TM) 64-Bit Server VM
Default Encoding: UTF-8
Language: en
Country: US
--></g></svg>